<?xml version="1.0" encoding="utf-8"?>
<!-- Generator: Adobe Illustrator 15.0.0, SVG Export Plug-In  -->
<!DOCTYPE svg PUBLIC "-//W3C//DTD SVG 1.1//EN" "http://www.w3.org/Graphics/SVG/1.1/DTD/svg11.dtd" [
	<!ENTITY ns_flows "http://ns.adobe.com/Flows/1.0/">
]>
<svg version="1.1"
	 xmlns="http://www.w3.org/2000/svg" xmlns:xlink="http://www.w3.org/1999/xlink" xmlns:a="http://ns.adobe.com/AdobeSVGViewerExtensions/3.0/"
	 x="0px" y="0px" width="255px" height="75px" viewBox="-4.574 -3.357 255 75"
	 overflow="visible" enable-background="new -4.574 -3.357 255 75" xml:space="preserve">
<defs>
</defs>
<rect x="149.65" fill="#666666" width="9.559" height="48.748"/>
<polygon fill="#666666" points="102.86,12.285 90.574,12.285 90.574,0 81.018,0 81.018,48.748 90.574,48.748 90.574,21.842 
	102.86,21.842 "/>
<path fill="#666666" d="M124.697,9.482c-10.822,0-19.599,8.775-19.599,19.6c0,10.826,8.776,19.602,19.599,19.602
	c10.826,0,19.601-8.775,19.601-19.602C144.298,18.258,135.523,9.482,124.697,9.482z M124.697,39.129
	c-5.543,0-10.041-4.5-10.041-10.045c0-5.547,4.498-10.043,10.041-10.043c5.549,0,10.045,4.496,10.045,10.043
	C134.742,34.629,130.246,39.129,124.697,39.129z"/>
<path fill="#666666" d="M182.922,9.482c-10.824,0-19.602,8.775-19.602,19.6c0,10.826,8.777,19.602,19.602,19.602
	s19.6-8.775,19.6-19.602C202.521,18.258,193.746,9.482,182.922,9.482z M182.922,39.129c-5.549,0-10.047-4.5-10.047-10.045
	c0-5.547,4.498-10.043,10.047-10.043c5.544,0,10.043,4.496,10.043,10.043C192.965,34.629,188.466,39.129,182.922,39.129z"/>
<path fill="#666666" d="M62.938,19.041c2.771,0,5.283,1.123,7.102,2.939l6.758-6.756c-3.548-3.547-8.445-5.742-13.859-5.742
	c-10.825,0-19.6,8.775-19.6,19.6v19.602h9.557v-2.766V29.084C52.895,23.537,57.391,19.041,62.938,19.041z"/>
<path fill="#666666" d="M226.251,9.482c-10.827,0-19.601,8.775-19.601,19.6c0,10.826,8.773,19.602,19.601,19.602
	c3.673,0,7.104-1.008,10.044-2.766v2.766c0,5.375-4.221,9.762-9.526,10.031c-0.174,0.008-0.344,0.014-0.518,0.014
	c-0.188,0-0.37-0.008-0.554-0.018c-5.291-0.287-9.49-4.666-9.49-10.027h-9.557c0,5.414,2.194,10.312,5.742,13.861l0,0
	c3.437,3.436,8.141,5.6,13.354,5.732c0.169,0.006,0.334,0.008,0.505,0.008c0.169,0,0.339-0.002,0.506-0.008
	c10.59-0.266,19.095-8.936,19.095-19.594v-19.6v-0.002C245.852,18.258,237.076,9.482,226.251,9.482z M226.251,39.129
	c-5.548,0-10.044-4.5-10.044-10.045c0-5.547,4.496-10.043,10.044-10.043s10.044,4.496,10.044,10.043
	C236.295,34.629,231.799,39.129,226.251,39.129z"/>
<path fill="#666666" d="M19.6,9.482C8.774,9.482,0,18.26,0,29.084s8.774,19.6,19.6,19.6c3.669,0,7.104-1.008,10.042-2.766v2.766
	H39.2v-19.6C39.2,18.26,30.425,9.482,19.6,9.482z M19.6,39.129c-5.549,0-10.045-4.5-10.045-10.045
	c0-5.547,4.496-10.043,10.045-10.043c5.545,0,10.042,4.496,10.042,10.043C29.642,34.629,25.145,39.129,19.6,39.129z"/>
<circle fill="#36BDD9" cx="124.698" cy="29.083" r="10.056"/>
<path fill="#666666" d="M129.293,57.039c-1.125-1.168-2.396-1.752-3.814-1.752c-1.643,0-3.01,0.609-4.105,1.826
	c-1.09,1.219-1.637,2.74-1.637,4.564c0,1.859,0.547,3.412,1.637,4.652c1.103,1.219,2.495,1.826,4.178,1.826
	c1.338,0,2.584-0.543,3.742-1.623v1.275h2.828V55.625h-2.828V57.039z M128.504,64.57c-0.641,0.717-1.482,1.072-2.527,1.072
	c-0.972,0-1.784-0.369-2.424-1.111c-0.628-0.736-0.938-1.686-0.938-2.854c0-1.092,0.321-2.008,0.962-2.75
	c0.65-0.734,1.46-1.104,2.427-1.104c1.024,0,1.86,0.365,2.501,1.09c0.642,0.742,0.965,1.688,0.965,2.828
	C129.469,62.885,129.146,63.826,128.504,64.57z"/>
<path fill="#666666" d="M139.861,55.6c-0.399,0.201-0.859,0.568-1.376,1.115v-1.09h-2.813v12.184h2.813v-6.316
	c0-2.32,0.767-3.477,2.302-3.477c0.508,0,1.027,0.191,1.562,0.574l1.287-2.576c-0.808-0.484-1.582-0.727-2.325-0.727
	C140.752,55.287,140.27,55.391,139.861,55.6z"/>
<path fill="#666666" d="M146.379,57.166c-1.284,1.25-1.928,2.781-1.928,4.602c0,1.818,0.633,3.34,1.902,4.562
	c1.267,1.219,2.843,1.826,4.727,1.826c1.142,0,2.286-0.295,3.426-0.887v-3.713c-0.672,0.814-1.263,1.365-1.764,1.65
	c-0.518,0.289-1.111,0.436-1.786,0.436c-1.058,0-1.932-0.365-2.616-1.098c-0.674-0.736-1.012-1.672-1.012-2.814
	c0-1.119,0.352-2.047,1.052-2.793c0.7-0.738,1.577-1.113,2.638-1.113c0.675,0,1.264,0.152,1.764,0.453
	c0.51,0.293,1.086,0.826,1.725,1.613v-3.74c-1.066-0.574-2.201-0.863-3.402-0.863C149.237,55.287,147.664,55.914,146.379,57.166z"/>
<path fill="#666666" d="M160.71,67.809v-5.893c0-1.5,0.196-2.561,0.589-3.176c0.402-0.607,1.092-0.916,2.078-0.916
	c0.764,0,1.322,0.221,1.669,0.658c0.345,0.438,0.515,1.145,0.515,2.121v7.205h2.816v-7.467c0-1.703-0.35-2.939-1.049-3.717
	c-0.824-0.891-1.926-1.338-3.304-1.338c-1.207,0-2.313,0.449-3.314,1.352v-4.523h-2.812v15.693h0.967l0,0H160.71z"/>
<rect x="171.942" y="55.625" fill="#666666" width="2.812" height="12.184"/>
<polygon fill="#666666" points="189.289,55.625 186.127,55.625 182.984,62.467 179.834,55.625 176.684,55.625 182.558,67.809 
	183.369,67.809 "/>
<path fill="#666666" d="M199.583,63.293c-0.574,0.898-1.089,1.518-1.538,1.852c-0.458,0.334-1.039,0.498-1.738,0.498
	c-0.9,0-1.64-0.291-2.213-0.875c-0.578-0.592-0.9-1.391-0.978-2.389h8.732l0.013-0.662c0-2.01-0.52-3.582-1.553-4.715
	c-1.043-1.146-2.461-1.715-4.25-1.715c-1.779,0-3.203,0.588-4.279,1.764c-1.067,1.193-1.603,2.752-1.603,4.68
	c0,1.941,0.55,3.502,1.65,4.676c1.101,1.168,2.561,1.75,4.381,1.75c0.632,0,1.22-0.064,1.761-0.197
	c0.545-0.135,1.047-0.346,1.514-0.633c0.466-0.289,0.905-0.654,1.314-1.102c0.406-0.447,0.797-0.982,1.162-1.605L199.583,63.293z
	 M193.706,59.139c0.173-0.273,0.385-0.512,0.63-0.705c0.246-0.195,0.521-0.344,0.82-0.449c0.299-0.107,0.622-0.16,0.961-0.16
	c1.501,0,2.448,0.754,2.84,2.254h-5.652C193.397,59.729,193.529,59.416,193.706,59.139z"/>
<path fill="#666666" d="M8.631,57.166c-1.282,1.25-1.926,2.781-1.926,4.602c0,1.818,0.633,3.34,1.9,4.562
	c1.268,1.219,2.843,1.826,4.729,1.826c1.143,0,2.283-0.297,3.427-0.887v-3.713c-0.674,0.814-1.265,1.365-1.763,1.65
	c-0.518,0.289-1.113,0.436-1.789,0.436c-1.06,0-1.932-0.365-2.616-1.098C9.919,63.809,9.58,62.869,9.58,61.73
	c0-1.119,0.352-2.049,1.052-2.793c0.702-0.738,1.579-1.113,2.642-1.113c0.672,0,1.26,0.152,1.762,0.453
	c0.508,0.291,1.084,0.826,1.726,1.613v-3.74c-1.066-0.574-2.202-0.863-3.403-0.863C11.492,55.287,9.915,55.914,8.631,57.166z"/>
<path fill="#666666" d="M25.404,55.287c-1.811,0-3.346,0.617-4.604,1.85c-1.259,1.234-1.888,2.732-1.888,4.492
	c0,1.867,0.616,3.418,1.851,4.652c1.234,1.25,2.763,1.875,4.59,1.875c1.844,0,3.397-0.611,4.665-1.838
	c1.259-1.232,1.889-2.762,1.889-4.588c0-1.812-0.624-3.34-1.876-4.58C28.764,55.908,27.221,55.287,25.404,55.287z M28.043,64.58
	c-0.658,0.707-1.539,1.062-2.639,1.062c-1.094,0-1.973-0.355-2.641-1.072c-0.649-0.713-0.975-1.674-0.975-2.893
	c0-1.135,0.333-2.059,1.001-2.775c0.667-0.717,1.539-1.078,2.614-1.078c1.092,0,1.971,0.361,2.639,1.078
	c0.658,0.707,0.988,1.656,0.988,2.84S28.701,63.873,28.043,64.58z"/>
<rect x="34.884" y="55.717" fill="#666666" width="2.814" height="12.092"/>
<rect x="41.264" y="55.717" fill="#666666" width="2.814" height="12.092"/>
<path fill="#666666" d="M54.932,65.145c-0.457,0.334-1.037,0.498-1.736,0.498c-0.901,0-1.641-0.291-2.215-0.875
	c-0.576-0.592-0.898-1.391-0.975-2.389h8.73l0.014-0.662c0-2.012-0.518-3.582-1.552-4.715c-1.045-1.146-2.46-1.715-4.255-1.715
	c-1.774,0-3.201,0.588-4.276,1.764c-1.067,1.193-1.603,2.752-1.603,4.68c0,1.941,0.551,3.502,1.652,4.676
	c1.102,1.166,2.559,1.75,4.377,1.75c0.635,0,1.223-0.064,1.765-0.197c0.542-0.135,1.046-0.346,1.511-0.633
	c0.471-0.289,0.906-0.654,1.316-1.102c0.407-0.447,0.796-0.982,1.162-1.605l-2.375-1.33C55.897,64.191,55.384,64.811,54.932,65.145z
	 M50.592,59.139c0.175-0.273,0.387-0.512,0.635-0.705c0.246-0.195,0.518-0.346,0.815-0.449c0.304-0.107,0.622-0.16,0.966-0.16
	c1.5,0,2.447,0.754,2.84,2.254h-5.655C50.285,59.729,50.418,59.416,50.592,59.139z"/>
<path fill="#666666" d="M63.164,57.166c-1.283,1.25-1.928,2.781-1.928,4.602c0,1.818,0.634,3.34,1.902,4.562
	c1.268,1.219,2.844,1.826,4.727,1.826c1.144,0,2.286-0.297,3.43-0.887v-3.713c-0.676,0.814-1.264,1.365-1.768,1.65
	c-0.515,0.289-1.11,0.436-1.789,0.436c-1.055,0-1.926-0.365-2.611-1.098c-0.674-0.736-1.012-1.676-1.012-2.814
	c0-1.119,0.35-2.049,1.049-2.793c0.701-0.738,1.581-1.113,2.641-1.113c0.676,0,1.262,0.152,1.762,0.453
	c0.51,0.291,1.084,0.826,1.729,1.613v-3.74c-1.07-0.574-2.203-0.863-3.403-0.863C66.021,55.287,64.447,55.914,63.164,57.166z"/>
<polygon fill="#666666" points="76.922,58.252 79.112,58.252 79.112,55.717 72.908,55.717 72.908,58.252 74.109,58.252 
	74.109,67.793 76.922,67.793 "/>
<rect x="81.023" y="55.717" fill="#666666" width="2.812" height="12.076"/>
<polygon fill="#666666" points="92.068,62.467 88.958,55.717 85.807,55.717 91.633,67.793 92.458,67.793 98.326,55.717 
	95.166,55.717 "/>
<path fill="#666666" d="M108.666,63.289c-0.575,0.902-1.09,1.521-1.536,1.855c-0.46,0.334-1.041,0.498-1.742,0.498
	c-0.901,0-1.638-0.291-2.212-0.875c-0.576-0.592-0.899-1.391-0.977-2.389h8.73l0.012-0.662c0-2.012-0.516-3.582-1.551-4.715
	c-1.041-1.146-2.457-1.715-4.25-1.715c-1.777,0-3.205,0.588-4.278,1.764c-1.067,1.193-1.603,2.752-1.603,4.68
	c0,1.941,0.551,3.502,1.651,4.676c1.102,1.166,2.562,1.75,4.378,1.75c0.634,0,1.222-0.064,1.763-0.197
	c0.541-0.135,1.048-0.346,1.515-0.633c0.466-0.289,0.906-0.654,1.312-1.102c0.407-0.447,0.795-0.982,1.163-1.605L108.666,63.289z
	 M102.787,59.139c0.174-0.273,0.387-0.512,0.632-0.705c0.245-0.195,0.517-0.346,0.82-0.449c0.3-0.107,0.62-0.16,0.963-0.16
	c1.499,0,2.446,0.754,2.84,2.254h-5.653C102.479,59.729,102.613,59.416,102.787,59.139z"/>
<path fill="#FF6600" d="M133.555,5.164c-8.318,0-15.064,6.744-15.064,15.064c0,0.316,0.012,0.629,0.031,0.939
	c1.703-1.332,3.85-2.127,6.176-2.127c5.549,0,10.045,4.496,10.045,10.043c0,2.328-0.795,4.473-2.128,6.178
	c0.313,0.018,0.624,0.031,0.94,0.031c8.322,0,15.066-6.746,15.066-15.064C148.621,11.908,141.877,5.164,133.555,5.164z"/>
<path fill="#FFCC33" d="M124.697,19.041c-2.326,0-4.473,0.795-6.176,2.127c0.467,7.57,6.523,13.627,14.093,14.094
	c1.333-1.705,2.128-3.85,2.128-6.178C134.742,23.537,130.246,19.041,124.697,19.041z"/>
</svg>
