<?xml version="1.0" encoding="utf-8"?>
<!-- Generator: Adobe Illustrator 15.0.0, SVG Export Plug-In  -->
<!DOCTYPE svg PUBLIC "-//W3C//DTD SVG 1.1//EN" "http://www.w3.org/Graphics/SVG/1.1/DTD/svg11.dtd" [
	<!ENTITY ns_flows "http://ns.adobe.com/Flows/1.0/">
]>
<svg version="1.1"
	 xmlns="http://www.w3.org/2000/svg" xmlns:xlink="http://www.w3.org/1999/xlink" xmlns:a="http://ns.adobe.com/AdobeSVGViewerExtensions/3.0/"
	 x="0px" y="0px" width="340px" height="75px" viewBox="-1 -3.303 340 75"
	 overflow="visible" enable-background="new -1 -3.303 340 75" xml:space="preserve">
<defs>
</defs>
<circle fill="#36BDD9" cx="126.444" cy="29.083" r="10.057"/>
<g>
	<g>
		<g>
			<g>
				<g>
					<path fill="#CCCCCC" d="M9.425,57.577c-1.109-1.151-2.365-1.727-3.762-1.727c-1.619,0-2.967,0.601-4.047,1.803
						C0.54,58.854,0,60.354,0,62.152c0,1.834,0.54,3.364,1.616,4.589c1.086,1.201,2.461,1.802,4.121,1.802
						c1.314,0,2.545-0.535,3.688-1.604v1.259h2.789V56.185H9.425V57.577z M8.647,65.005c-0.633,0.707-1.463,1.058-2.49,1.058
						c-0.961,0-1.762-0.363-2.393-1.098c-0.619-0.724-0.926-1.66-0.926-2.812c0-1.075,0.316-1.979,0.949-2.712
						c0.641-0.724,1.439-1.086,2.395-1.086c1.008,0,1.832,0.359,2.465,1.073c0.633,0.732,0.951,1.663,0.951,2.788
						C9.599,63.342,9.28,64.27,8.647,65.005z"/>
					<path fill="#CCCCCC" d="M19.847,56.159c-0.395,0.198-0.848,0.563-1.359,1.099v-1.073h-2.773v12.014h2.773v-6.229
						c0-2.285,0.76-3.429,2.271-3.429c0.502,0,1.016,0.189,1.541,0.568l1.271-2.54c-0.797-0.478-1.562-0.718-2.295-0.718
						C20.726,55.851,20.249,55.954,19.847,56.159z"/>
					<path fill="#CCCCCC" d="M26.272,57.702c-1.266,1.232-1.9,2.747-1.9,4.54c0,1.792,0.627,3.291,1.875,4.499
						c1.25,1.201,2.805,1.802,4.664,1.802c1.125,0,2.252-0.292,3.377-0.875v-3.663c-0.664,0.804-1.244,1.348-1.738,1.626
						c-0.51,0.287-1.098,0.432-1.764,0.432c-1.043,0-1.904-0.36-2.58-1.084c-0.664-0.725-0.996-1.649-0.996-2.776
						c0-1.101,0.346-2.017,1.035-2.749c0.691-0.73,1.559-1.099,2.604-1.099c0.664,0,1.246,0.148,1.74,0.444
						c0.5,0.287,1.068,0.819,1.699,1.591v-3.687c-1.053-0.569-2.17-0.853-3.354-0.853C29.091,55.851,27.538,56.467,26.272,57.702z"
						/>
					<path fill="#CCCCCC" d="M40.407,68.198V62.39c0-1.48,0.193-2.525,0.58-3.137c0.395-0.598,1.076-0.898,2.047-0.898
						c0.756,0,1.307,0.216,1.645,0.649c0.342,0.431,0.514,1.127,0.514,2.091v7.104h2.773v-7.364c0-1.678-0.344-2.897-1.035-3.663
						c-0.812-0.88-1.898-1.32-3.256-1.32c-1.191,0-2.281,0.444-3.268,1.333v-4.462h-2.773v15.477h0.955l0,0H40.407z"/>
					<rect x="51.481" y="56.185" fill="#CCCCCC" width="2.775" height="12.014"/>
					<polygon fill="#CCCCCC" points="68.589,56.185 65.468,56.185 62.372,62.933 59.265,56.185 56.155,56.185 61.948,68.198 
						62.751,68.198 					"/>
					<path fill="#CCCCCC" d="M78.737,63.746c-0.566,0.886-1.07,1.496-1.516,1.824c-0.453,0.328-1.023,0.492-1.715,0.492
						c-0.887,0-1.617-0.286-2.182-0.861c-0.57-0.585-0.891-1.371-0.963-2.358h8.607l0.014-0.65c0-1.984-0.51-3.533-1.529-4.651
						c-1.029-1.128-2.428-1.69-4.191-1.69c-1.754,0-3.158,0.579-4.221,1.741c-1.053,1.174-1.578,2.712-1.578,4.61
						c0,1.917,0.541,3.453,1.627,4.615c1.086,1.151,2.525,1.726,4.318,1.726c0.625,0,1.203-0.064,1.736-0.197
						c0.537-0.131,1.033-0.339,1.494-0.623s0.891-0.645,1.295-1.086c0.402-0.44,0.785-0.968,1.146-1.584L78.737,63.746z
						 M72.942,59.65c0.17-0.271,0.379-0.505,0.623-0.698c0.242-0.192,0.512-0.34,0.807-0.442c0.297-0.104,0.613-0.155,0.949-0.155
						c1.48,0,2.414,0.739,2.801,2.219h-5.574C72.638,60.229,72.769,59.923,72.942,59.65z"/>
					<g>
						<g>
							<path fill="#CCCCCC" d="M89.507,59.037c-0.244-0.237-0.529-0.421-0.855-0.551c-0.324-0.13-0.664-0.194-1.018-0.194
								c-0.365,0-0.695,0.096-0.986,0.288c-0.293,0.192-0.438,0.51-0.438,0.95c0,0.374,0.148,0.665,0.447,0.874
								c0.299,0.21,0.74,0.439,1.322,0.688c0.328,0.136,0.674,0.298,1.035,0.484s0.693,0.415,0.994,0.687
								c0.301,0.272,0.551,0.598,0.748,0.977s0.297,0.829,0.297,1.35c0,0.645-0.123,1.213-0.369,1.705s-0.576,0.899-0.994,1.222
								c-0.416,0.323-0.896,0.566-1.441,0.73s-1.111,0.246-1.693,0.246c-0.869,0-1.66-0.136-2.371-0.407
								c-0.713-0.271-1.287-0.587-1.721-0.948l1.67-2.033c0.311,0.271,0.672,0.488,1.078,0.652c0.406,0.163,0.82,0.245,1.242,0.245
								c0.393,0,0.725-0.107,0.996-0.322c0.271-0.214,0.408-0.514,0.408-0.897c0-0.396-0.164-0.709-0.488-0.94
								c-0.326-0.231-0.801-0.478-1.426-0.737c-0.393-0.158-0.764-0.333-1.109-0.525c-0.346-0.191-0.65-0.423-0.916-0.694
								c-0.264-0.271-0.471-0.587-0.621-0.949c-0.148-0.361-0.223-0.79-0.223-1.287c0-0.667,0.131-1.24,0.396-1.72
								c0.264-0.48,0.611-0.873,1.037-1.178c0.428-0.306,0.902-0.531,1.426-0.678c0.521-0.146,1.049-0.221,1.578-0.221
								c0.787,0,1.492,0.106,2.117,0.32c0.623,0.213,1.146,0.505,1.566,0.875L89.507,59.037z"/>
						</g>
					</g>
				</g>
				<g>
					<path fill="#CCCCCC" d="M97.707,57.743c-1.268,1.233-1.9,2.745-1.9,4.538s0.625,3.293,1.875,4.501
						c1.25,1.201,2.805,1.801,4.662,1.801c1.127,0,2.254-0.291,3.379-0.874v-3.663c-0.666,0.805-1.246,1.348-1.74,1.627
						c-0.508,0.287-1.096,0.432-1.762,0.432c-1.045,0-1.904-0.361-2.578-1.086c-0.664-0.723-1-1.648-1-2.774
						c0-1.103,0.348-2.019,1.037-2.751c0.691-0.73,1.557-1.099,2.602-1.099c0.666,0,1.246,0.148,1.74,0.444
						c0.502,0.289,1.068,0.819,1.701,1.592v-3.687c-1.053-0.569-2.17-0.853-3.354-0.853C100.527,55.892,98.975,56.51,97.707,57.743z
						"/>
					<path fill="#CCCCCC" d="M114.244,55.892c-1.783,0-3.297,0.61-4.537,1.825c-1.242,1.217-1.863,2.694-1.863,4.428
						c0,1.842,0.607,3.371,1.826,4.588c1.217,1.235,2.727,1.851,4.525,1.851c1.818,0,3.352-0.604,4.602-1.812
						c1.242-1.216,1.861-2.725,1.861-4.526c0-1.784-0.615-3.29-1.85-4.514C117.559,56.506,116.037,55.892,114.244,55.892z
						 M116.848,65.056c-0.65,0.699-1.518,1.049-2.604,1.049c-1.078,0-1.943-0.353-2.6-1.06c-0.645-0.7-0.963-1.65-0.963-2.851
						c0-1.117,0.328-2.03,0.986-2.737c0.656-0.707,1.516-1.062,2.576-1.062c1.078,0,1.945,0.355,2.604,1.062
						c0.65,0.698,0.975,1.633,0.975,2.8C117.822,63.423,117.498,64.358,116.848,65.056z"/>
					<rect x="123.594" y="56.314" fill="#CCCCCC" width="2.775" height="11.924"/>
					<rect x="129.885" y="56.314" fill="#CCCCCC" width="2.773" height="11.924"/>
					<path fill="#CCCCCC" d="M143.365,65.61c-0.453,0.329-1.023,0.494-1.715,0.494c-0.889,0-1.617-0.287-2.184-0.862
						c-0.568-0.586-0.887-1.37-0.963-2.358h8.609l0.014-0.652c0-1.982-0.512-3.532-1.529-4.65c-1.027-1.128-2.426-1.689-4.195-1.689
						c-1.75,0-3.156,0.579-4.217,1.74c-1.053,1.175-1.578,2.712-1.578,4.612c0,1.916,0.543,3.454,1.627,4.613
						c1.086,1.151,2.525,1.726,4.316,1.726c0.623,0,1.205-0.064,1.738-0.197c0.535-0.131,1.033-0.34,1.492-0.623
						c0.461-0.282,0.895-0.645,1.295-1.084c0.404-0.441,0.787-0.969,1.148-1.586l-2.344-1.307
						C144.314,64.673,143.809,65.282,143.365,65.61z M139.084,59.691c0.174-0.271,0.381-0.506,0.625-0.696
						c0.24-0.194,0.51-0.343,0.807-0.445c0.295-0.102,0.613-0.155,0.949-0.155c1.48,0,2.414,0.741,2.799,2.22h-5.574
						C138.781,60.271,138.912,59.964,139.084,59.691z"/>
					<path fill="#CCCCCC" d="M151.48,57.743c-1.268,1.233-1.898,2.745-1.898,4.538s0.623,3.293,1.873,4.501
						c1.25,1.201,2.805,1.801,4.662,1.801c1.127,0,2.252-0.291,3.381-0.874v-3.663c-0.668,0.805-1.248,1.348-1.74,1.627
						c-0.51,0.287-1.098,0.432-1.764,0.432c-1.045,0-1.904-0.361-2.576-1.086c-0.668-0.723-1-1.648-1-2.774
						c0-1.103,0.344-2.019,1.035-2.751c0.689-0.73,1.559-1.099,2.604-1.099c0.666,0,1.246,0.148,1.738,0.444
						c0.502,0.289,1.068,0.819,1.703,1.592v-3.687c-1.053-0.569-2.172-0.853-3.355-0.853
						C154.299,55.892,152.746,56.51,151.48,57.743z"/>
					<polygon fill="#CCCCCC" points="165.047,58.815 167.205,58.815 167.205,56.314 161.088,56.314 161.088,58.815 162.271,58.815 
						162.271,68.224 165.047,68.224 					"/>
					<rect x="169.092" y="56.314" fill="#CCCCCC" width="2.775" height="11.909"/>
					<polygon fill="#CCCCCC" points="179.982,62.973 176.916,56.314 173.809,56.314 179.553,68.224 180.367,68.224 186.154,56.314 
						183.039,56.314 					"/>
					<path fill="#CCCCCC" d="M196.35,63.786c-0.566,0.887-1.072,1.496-1.518,1.824c-0.451,0.329-1.023,0.494-1.713,0.494
						c-0.889,0-1.617-0.287-2.184-0.862c-0.568-0.586-0.887-1.37-0.963-2.358h8.611l0.012-0.652c0-1.982-0.512-3.532-1.531-4.65
						c-1.027-1.128-2.424-1.689-4.193-1.689c-1.752,0-3.156,0.579-4.217,1.74c-1.053,1.175-1.58,2.712-1.58,4.612
						c0,1.916,0.543,3.454,1.629,4.613c1.084,1.151,2.523,1.726,4.316,1.726c0.625,0,1.205-0.064,1.738-0.197
						c0.535-0.131,1.033-0.34,1.492-0.623c0.461-0.282,0.893-0.645,1.297-1.084c0.4-0.441,0.785-0.969,1.146-1.586L196.35,63.786z
						 M190.553,59.691c0.174-0.271,0.379-0.506,0.623-0.696c0.242-0.194,0.512-0.343,0.809-0.445
						c0.295-0.102,0.611-0.155,0.947-0.155c1.48,0,2.416,0.741,2.801,2.22h-5.574C190.25,60.271,190.381,59.964,190.553,59.691z"/>
					<g>
						<g>
							<path fill="#CCCCCC" d="M206.879,58.769c-0.246-0.237-0.529-0.421-0.855-0.551s-0.666-0.194-1.018-0.194
								c-0.367,0-0.695,0.096-0.988,0.288c-0.291,0.192-0.438,0.51-0.438,0.95c0,0.374,0.15,0.665,0.447,0.874
								c0.299,0.21,0.74,0.439,1.324,0.688c0.328,0.136,0.672,0.298,1.035,0.484c0.361,0.187,0.693,0.415,0.992,0.687
								c0.301,0.272,0.551,0.598,0.748,0.977c0.199,0.379,0.299,0.829,0.299,1.35c0,0.645-0.123,1.213-0.369,1.705
								s-0.578,0.899-0.994,1.222c-0.416,0.323-0.898,0.566-1.443,0.73s-1.109,0.246-1.693,0.246c-0.867,0-1.658-0.136-2.371-0.407
								c-0.713-0.271-1.285-0.587-1.721-0.948l1.67-2.033c0.312,0.271,0.672,0.488,1.078,0.652c0.408,0.163,0.822,0.245,1.242,0.245
								c0.395,0,0.727-0.107,0.998-0.322c0.271-0.214,0.406-0.514,0.406-0.897c0-0.396-0.162-0.709-0.488-0.94
								s-0.801-0.478-1.424-0.737c-0.395-0.158-0.764-0.333-1.109-0.525c-0.348-0.191-0.652-0.423-0.916-0.694
								c-0.266-0.271-0.473-0.587-0.621-0.949c-0.15-0.361-0.225-0.79-0.225-1.287c0-0.667,0.133-1.24,0.396-1.72
								c0.266-0.48,0.611-0.873,1.039-1.178c0.428-0.306,0.902-0.531,1.424-0.678c0.523-0.146,1.049-0.221,1.578-0.221
								c0.787,0,1.492,0.106,2.117,0.32c0.625,0.213,1.146,0.505,1.568,0.875L206.879,58.769z"/>
						</g>
					</g>
				</g>
			</g>
		</g>
	</g>
</g>
<rect x="151.396" fill="#FFFFFF" width="9.559" height="48.748"/>
<polygon fill="#FFFFFF" points="104.606,12.285 92.319,12.285 92.319,0 82.763,0 82.763,48.748 92.319,48.748 92.319,21.842 
	104.606,21.842 "/>
<path fill="#FFFFFF" d="M126.442,9.482c-10.822,0-19.598,8.775-19.598,19.6c0,10.826,8.775,19.602,19.598,19.602
	c10.826,0,19.602-8.775,19.602-19.602C146.044,18.258,137.269,9.482,126.442,9.482z M126.442,39.129
	c-5.543,0-10.041-4.5-10.041-10.045c0-5.547,4.498-10.043,10.041-10.043c5.549,0,10.045,4.496,10.045,10.043
	C136.487,34.629,131.991,39.129,126.442,39.129z"/>
<path fill="#FFFFFF" d="M184.667,9.482c-10.824,0-19.602,8.775-19.602,19.6c0,10.826,8.777,19.602,19.602,19.602
	s19.6-8.775,19.6-19.602C204.267,18.258,195.491,9.482,184.667,9.482z M184.667,39.129c-5.549,0-10.047-4.5-10.047-10.045
	c0-5.547,4.498-10.043,10.047-10.043c5.545,0,10.043,4.496,10.043,10.043C194.71,34.629,190.212,39.129,184.667,39.129z"/>
<path fill="#FFFFFF" d="M64.683,19.041c2.771,0,5.283,1.123,7.102,2.939l6.758-6.756c-3.547-3.547-8.445-5.742-13.859-5.742
	c-10.824,0-19.6,8.775-19.6,19.6v19.602h9.557v-2.766V29.084C54.64,23.537,59.136,19.041,64.683,19.041z"/>
<path fill="#FFFFFF" d="M227.997,9.482c-10.828,0-19.602,8.775-19.602,19.6c0,10.826,8.773,19.602,19.602,19.602
	c3.672,0,7.104-1.008,10.043-2.766v2.766c0,5.375-4.221,9.762-9.525,10.031c-0.174,0.008-0.344,0.014-0.518,0.014
	c-0.189,0-0.371-0.008-0.555-0.018c-5.291-0.287-9.49-4.666-9.49-10.027h-9.557c0,5.414,2.195,10.312,5.742,13.861l0,0
	c3.438,3.436,8.141,5.6,13.354,5.732c0.17,0.006,0.334,0.008,0.506,0.008c0.168,0,0.338-0.002,0.506-0.008
	c10.59-0.266,19.094-8.936,19.094-19.594v-19.6c0,0,0,0,0-0.002C247.597,18.258,238.821,9.482,227.997,9.482z M227.997,39.129
	c-5.549,0-10.045-4.5-10.045-10.045c0-5.547,4.496-10.043,10.045-10.043c5.547,0,10.043,4.496,10.043,10.043
	C238.04,34.629,233.544,39.129,227.997,39.129z"/>
<path fill="#FF6600" d="M135.3,5.164c-8.318,0-15.064,6.744-15.064,15.064c0,0.316,0.012,0.629,0.031,0.939
	c1.703-1.332,3.85-2.127,6.176-2.127c5.549,0,10.045,4.496,10.045,10.043c0,2.328-0.795,4.473-2.127,6.178
	c0.312,0.018,0.623,0.031,0.939,0.031c8.322,0,15.066-6.746,15.066-15.064C150.366,11.908,143.622,5.164,135.3,5.164z"/>
<path fill="#FFCC33" d="M126.442,19.041c-2.326,0-4.473,0.795-6.176,2.127c0.467,7.57,6.523,13.627,14.094,14.094
	c1.332-1.705,2.127-3.85,2.127-6.178C136.487,23.537,131.991,19.041,126.442,19.041z"/>
<path fill="#FFFFFF" d="M21.345,9.482c-10.824,0-19.6,8.777-19.6,19.602s8.775,19.6,19.6,19.6c3.67,0,7.105-1.008,10.043-2.766
	v2.766h9.559v-19.6C40.946,18.26,32.171,9.482,21.345,9.482z M21.345,39.129c-5.549,0-10.045-4.5-10.045-10.045
	c0-5.547,4.496-10.043,10.045-10.043c5.545,0,10.043,4.496,10.043,10.043C31.388,34.629,26.89,39.129,21.345,39.129z"/>
<path fill="#FFFFFF" d="M314.646,39.682c-4.527,0-8.32-2.966-9.324-7.187l1.158-0.013l26.994,0.002
	c0.201-1.118,0.305-2.27,0.305-3.443c0-10.675-8.652-19.328-19.326-19.328c-10.676,0-19.328,8.653-19.328,19.328
	s8.652,19.327,19.328,19.327c7.227,0,13.529-3.969,16.844-9.845l-8.773-2.968C320.794,38.049,317.909,39.682,314.646,39.682z
	 M314.646,17.548c4.525,0,8.316,3.137,9.322,7.354h-18.645C306.329,20.685,310.12,17.548,314.646,17.548z"/>
<path fill="#FFFFFF" d="M291.017,29.063V9.734h-9.422v2.729v16.6c0,5.298-4.162,9.624-9.395,9.891
	c-0.17,0.009-0.34,0.013-0.51,0.013c-0.172,0-0.342-0.004-0.51-0.013c-5.232-0.267-9.395-4.593-9.395-9.891v-16.6V9.734h-9.424
	v19.329c0,5.338,2.162,10.169,5.66,13.667l0,0c3.498,3.497,8.33,5.66,13.668,5.66l0,0l0,0c5.336,0,10.17-2.163,13.668-5.66l0,0
	C288.854,39.232,291.017,34.401,291.017,29.063z"/>
</svg>
